<svg width="50" height="54" viewBox="0 0 50 54" fill="none" xmlns="http://www.w3.org/2000/svg">
<g clip-path="url(#clip0_8_817)">
<g clip-path="url(#clip1_8_817)">
<path d="M45.2339 46.8348C44.8728 49.6916 42.0059 51.7437 38.8272 51.4189L11.7794 48.648C8.60304 48.3212 6.32125 45.7429 6.68236 42.8861L11.4097 5.55939C11.7731 2.70258 14.6393 0.651074 17.8187 0.97658L44.8658 3.74684C48.0437 4.07297 50.3247 6.65194 49.962 9.50875L45.2339 46.8348Z" fill="#010C80"/>
<path d="M8.33524 50.4837C5.1589 50.1582 2.87633 47.5786 3.23743 44.7218L7.96552 7.39579C8.05011 6.72283 8.27962 6.09627 8.61488 5.53369H5.78947C2.5912 5.53369 0 7.8643 0 10.7399V48.3055C0 51.1818 2.5912 53.5124 5.78947 53.5124H33.0127C33.6911 53.5124 34.3389 53.4014 34.9452 53.2088L8.33524 50.4837Z" fill="#010C80"/>
</g>
</g>
<defs>
<clipPath id="clip0_8_817">
<rect width="50" height="52.5698" fill="white" transform="translate(0 0.942627)"/>
</clipPath>
<clipPath id="clip1_8_817">
<rect width="50" height="52.5698" fill="white" transform="translate(0 0.942627)"/>
</clipPath>
</defs>
</svg>
